<svg width="84" height="23" viewBox="0 0 84 23" fill="none" xmlns="http://www.w3.org/2000/svg">
<path d="M7.15783 3.99815H0.67475V0.590768H17.5911V3.99815H11.0778V22H7.15783V3.99815ZM25.0094 22.3618C23.4213 22.3618 22.0241 22.0201 20.818 21.3366C19.6319 20.633 18.7173 19.648 18.074 18.3815C17.4307 17.1151 17.1091 15.6375 17.1091 13.9489C17.1091 12.2804 17.4307 10.8129 18.074 9.54646C18.7173 8.2599 19.6219 7.27487 20.7878 6.59138C21.9739 5.88779 23.3509 5.536 24.9189 5.536C26.4467 5.536 27.7835 5.87774 28.9294 6.56123C30.0953 7.24472 30.9899 8.23979 31.6131 9.54646C32.2563 10.833 32.578 12.3709 32.578 14.16V15.0345H21.1195C21.1999 16.4215 21.5819 17.4769 22.2654 18.2006C22.9489 18.9243 23.8736 19.2862 25.0395 19.2862C25.8838 19.2862 26.5975 19.0952 27.1805 18.7132C27.7634 18.3112 28.1655 17.7584 28.3866 17.0548L32.3368 17.296C31.8945 18.864 31.02 20.1003 29.7134 21.0049C28.4268 21.9095 26.8588 22.3618 25.0094 22.3618ZM28.5675 12.4412C28.4871 11.1547 28.1253 10.1897 27.482 9.54646C26.8387 8.90318 25.9843 8.58154 24.9189 8.58154C23.8736 8.58154 23.0092 8.91323 22.3257 9.57661C21.6623 10.24 21.2602 11.1949 21.1195 12.4412H28.5675ZM42.043 22.3618C39.7312 22.3618 37.932 21.8693 36.6455 20.8843C35.3589 19.8993 34.6553 18.5826 34.5347 16.9342L38.4848 16.7532C38.6256 17.6176 38.9774 18.281 39.5402 18.7434C40.1232 19.1856 40.9575 19.4068 42.043 19.4068C43.9728 19.4068 44.9378 18.8037 44.9378 17.5975C44.9378 17.2156 44.8473 16.904 44.6664 16.6628C44.4855 16.4215 44.1437 16.2105 43.6412 16.0295C43.1386 15.8486 42.3948 15.6777 41.4098 15.5169C39.7614 15.2355 38.4647 14.8937 37.5199 14.4917C36.5952 14.0695 35.9318 13.5569 35.5298 12.9538C35.1277 12.3307 34.9267 11.5467 34.9267 10.6018C34.9267 9.07405 35.5197 7.84779 36.7058 6.92308C37.8918 5.99836 39.5704 5.536 41.7415 5.536C43.8321 5.536 45.4604 6.02851 46.6264 7.01354C47.8124 7.99856 48.5261 9.31528 48.7673 10.9637L44.8473 11.1446C44.7066 10.3204 44.3648 9.67713 43.8221 9.21477C43.2793 8.73231 42.5757 8.49108 41.7113 8.49108C40.8067 8.49108 40.1132 8.672 39.6307 9.03385C39.1683 9.39569 38.9372 9.87815 38.9372 10.4812C38.9372 11.1245 39.1784 11.607 39.6608 11.9286C40.1433 12.2302 40.9977 12.4814 42.2239 12.6825C43.9125 12.9438 45.2393 13.2855 46.2042 13.7077C47.1893 14.1097 47.8928 14.6224 48.315 15.2455C48.7372 15.8486 48.9482 16.6125 48.9482 17.5372C48.9482 19.065 48.315 20.2511 47.0485 21.0954C45.8022 21.9397 44.1337 22.3618 42.043 22.3618ZM58.4085 22.3618C56.0967 22.3618 54.2976 21.8693 53.011 20.8843C51.7244 19.8993 51.0208 18.5826 50.9002 16.9342L54.8504 16.7532C54.9911 17.6176 55.3429 18.281 55.9058 18.7434C56.4887 19.1856 57.323 19.4068 58.4085 19.4068C60.3384 19.4068 61.3033 18.8037 61.3033 17.5975C61.3033 17.2156 61.2128 16.904 61.0319 16.6628C60.851 16.4215 60.5092 16.2105 60.0067 16.0295C59.5041 15.8486 58.7603 15.6777 57.7753 15.5169C56.1269 15.2355 54.8303 14.8937 53.8854 14.4917C52.9607 14.0695 52.2973 13.5569 51.8953 12.9538C51.4932 12.3307 51.2922 11.5467 51.2922 10.6018C51.2922 9.07405 51.8852 7.84779 53.0713 6.92308C54.2573 5.99836 55.9359 5.536 58.107 5.536C60.1977 5.536 61.826 6.02851 62.9919 7.01354C64.178 7.99856 64.8916 9.31528 65.1328 10.9637L61.2128 11.1446C61.0721 10.3204 60.7304 9.67713 60.1876 9.21477C59.6448 8.73231 58.9412 8.49108 58.0768 8.49108C57.1722 8.49108 56.4787 8.672 55.9962 9.03385C55.5339 9.39569 55.3027 9.87815 55.3027 10.4812C55.3027 11.1245 55.5439 11.607 56.0264 11.9286C56.5088 12.2302 57.3632 12.4814 58.5894 12.6825C60.2781 12.9438 61.6048 13.2855 62.5698 13.7077C63.5548 14.1097 64.2584 14.6224 64.6805 15.2455C65.1027 15.8486 65.3138 16.6125 65.3138 17.5372C65.3138 19.065 64.6805 20.2511 63.4141 21.0954C62.1677 21.9397 60.4992 22.3618 58.4085 22.3618ZM72.9627 22.3618C71.254 22.3618 69.887 21.9799 68.8618 21.216C67.8567 20.432 67.3541 19.3465 67.3541 17.9594C67.3541 16.5924 67.7762 15.5169 68.6206 14.7329C69.485 13.9288 70.8117 13.3559 72.6009 13.0142L77.9381 11.9588C77.9381 10.833 77.6768 9.97867 77.1541 9.39569C76.6314 8.81272 75.8675 8.52123 74.8624 8.52123C73.0331 8.52123 71.9375 9.35549 71.5756 11.024L67.6255 10.8431C67.9471 9.15446 68.7311 7.84779 69.9775 6.92308C71.2238 5.99836 72.8521 5.536 74.8624 5.536C77.134 5.536 78.8528 6.11897 80.0187 7.28492C81.2048 8.43077 81.7978 10.0792 81.7978 12.2302V18.08C81.7978 18.5022 81.8681 18.7936 82.0089 18.9545C82.1496 19.1153 82.3808 19.1957 82.7024 19.1957H83.215V22C82.8934 22.0804 82.431 22.1206 81.8279 22.1206C80.8831 22.1206 80.1192 21.9196 79.5362 21.5175C78.9734 21.1155 78.6115 20.4421 78.4507 19.4972C78.0487 20.3616 77.3551 21.0552 76.3701 21.5778C75.4052 22.1005 74.2694 22.3618 72.9627 22.3618ZM73.7467 19.5575C75.0132 19.5575 76.0283 19.1856 76.7922 18.4418C77.5561 17.6981 77.9381 16.713 77.9381 15.4868V14.5822L73.7769 15.4265C72.9326 15.5873 72.3194 15.8486 71.9375 16.2105C71.5555 16.5723 71.3646 17.0347 71.3646 17.5975C71.3646 18.2207 71.5656 18.7032 71.9676 19.0449C72.3898 19.3867 72.9828 19.5575 73.7467 19.5575Z" fill="#3C5AE6"/>
</svg>
