<svg width="54" height="17" viewBox="0 0 54 17" fill="none" xmlns="http://www.w3.org/2000/svg">
<path d="M4.22222 7.99953C4.22222 6.86499 4.67292 5.77692 5.47516 4.97468C6.2774 4.17244 7.36546 3.72175 8.5 3.72175C9.63454 3.72175 10.7226 4.17244 11.5248 4.97468C12.3271 5.77692 12.7778 6.86499 12.7778 7.99953C12.7778 8.1616 12.8422 8.31704 12.9568 8.43165C13.0714 8.54625 13.2268 8.61064 13.3889 8.61064C13.551 8.61064 13.7064 8.54625 13.821 8.43165C13.9356 8.31704 14 8.1616 14 7.99953C13.9999 7.06155 13.76 6.13918 13.3029 5.32008C12.8459 4.50099 12.187 3.81239 11.3888 3.31973C10.5906 2.82707 9.67969 2.54673 8.74263 2.50536C7.80557 2.46398 6.87349 2.66294 6.035 3.08332C5.1965 3.5037 4.47945 4.13155 3.95199 4.90717C3.42454 5.68279 3.10421 6.58042 3.02145 7.51474C2.93869 8.44906 3.09626 9.38902 3.47917 10.2453C3.86208 11.1015 4.45762 11.8456 5.20917 12.4069C5.85363 12.8883 6.59585 13.2225 7.3835 13.3859C7.49291 13.6313 7.68015 13.8338 7.91625 13.9621C8.15234 14.0904 8.42414 14.1373 8.68958 14.0956C8.95502 14.0539 9.19932 13.9258 9.38467 13.7313C9.57003 13.5368 9.68611 13.2866 9.71496 13.0194C9.74382 12.7523 9.68383 12.4831 9.54428 12.2534C9.40474 12.0238 9.19341 11.8466 8.94299 11.7491C8.69258 11.6517 8.41704 11.6395 8.15899 11.7144C7.90095 11.7894 7.67479 11.9472 7.5155 12.1636C6.57781 11.9419 5.74244 11.41 5.14473 10.6543C4.54702 9.89851 4.22196 8.96309 4.22222 7.99953ZM4.83333 7.99953C4.83357 7.32498 5.01989 6.66357 5.37178 6.08807C5.72366 5.51258 6.22748 5.04531 6.8278 4.73768C7.42812 4.43004 8.10166 4.29398 8.77432 4.34444C9.44698 4.39491 10.0927 4.62995 10.6404 5.02372C11.1881 5.41748 11.6165 5.95469 11.8786 6.57625C12.1407 7.19781 12.2262 7.87961 12.1258 8.54665C12.0254 9.21368 11.7429 9.84009 11.3095 10.3569C10.876 10.8738 10.3084 11.2611 9.66906 11.4761C9.34026 11.204 8.92682 11.0551 8.5 11.0551C8.05572 11.0551 7.64872 11.2134 7.33095 11.4761C6.60296 11.2313 5.97026 10.7639 5.52212 10.1402C5.07399 9.51636 4.83306 8.7676 4.83333 7.99953Z" fill="white"/>
<path d="M19.6166 4.946H16.5646V3.56H24.1806V4.946H21.1286V13.5H19.6166V4.946ZM27.4064 13.668C26.6971 13.668 26.0764 13.5093 25.5444 13.192C25.0124 12.8653 24.6018 12.408 24.3124 11.82C24.0231 11.232 23.8784 10.5507 23.8784 9.776C23.8784 9.00133 24.0184 8.32 24.2984 7.732C24.5878 7.144 24.9938 6.69133 25.5164 6.374C26.0484 6.04733 26.6644 5.884 27.3644 5.884C28.0458 5.884 28.6431 6.04267 29.1564 6.36C29.6698 6.668 30.0664 7.12067 30.3464 7.718C30.6358 8.306 30.7804 9.01067 30.7804 9.832V10.21H25.4324C25.4698 10.9287 25.6611 11.4747 26.0064 11.848C26.3518 12.212 26.8231 12.394 27.4204 12.394C27.8498 12.394 28.2091 12.296 28.4984 12.1C28.7971 11.8947 29.0071 11.6147 29.1284 11.26L30.6684 11.358C30.4724 12.058 30.0804 12.618 29.4924 13.038C28.9138 13.458 28.2184 13.668 27.4064 13.668ZM29.1984 9.09C29.1611 8.446 28.9791 7.96067 28.6524 7.634C28.3258 7.30733 27.8964 7.144 27.3644 7.144C26.8324 7.144 26.3984 7.312 26.0624 7.648C25.7264 7.984 25.5164 8.46467 25.4324 9.09H29.1984ZM34.9972 13.668C33.9798 13.668 33.1818 13.4393 32.6032 12.982C32.0245 12.5247 31.7072 11.9133 31.6512 11.148L33.1912 11.078C33.3312 11.974 33.9332 12.422 34.9972 12.422C35.4732 12.422 35.8418 12.3473 36.1032 12.198C36.3738 12.0393 36.5092 11.8013 36.5092 11.484C36.5092 11.288 36.4625 11.134 36.3692 11.022C36.2758 10.9007 36.1032 10.798 35.8512 10.714C35.5992 10.6207 35.2258 10.532 34.7312 10.448C33.9938 10.3173 33.4152 10.154 32.9952 9.958C32.5752 9.762 32.2765 9.524 32.0992 9.244C31.9218 8.964 31.8332 8.614 31.8332 8.194C31.8332 7.494 32.0945 6.934 32.6172 6.514C33.1398 6.094 33.8725 5.884 34.8152 5.884C35.7205 5.884 36.4392 6.11267 36.9712 6.57C37.5032 7.02733 37.8252 7.61533 37.9372 8.334L36.4112 8.418C36.3365 8.01667 36.1592 7.704 35.8792 7.48C35.6085 7.24667 35.2492 7.13 34.8012 7.13C34.3345 7.13 33.9798 7.22333 33.7372 7.41C33.4945 7.58733 33.3732 7.83 33.3732 8.138C33.3732 8.46467 33.4945 8.70733 33.7372 8.866C33.9892 9.02467 34.4232 9.15533 35.0392 9.258C35.8045 9.37933 36.4065 9.538 36.8452 9.734C37.2838 9.92067 37.5918 10.154 37.7692 10.434C37.9558 10.7047 38.0492 11.05 38.0492 11.47C38.0492 12.1513 37.7645 12.688 37.1952 13.08C36.6352 13.472 35.9025 13.668 34.9972 13.668ZM42.264 13.668C41.2467 13.668 40.4487 13.4393 39.87 12.982C39.2914 12.5247 38.974 11.9133 38.918 11.148L40.458 11.078C40.598 11.974 41.2 12.422 42.264 12.422C42.74 12.422 43.1087 12.3473 43.37 12.198C43.6407 12.0393 43.776 11.8013 43.776 11.484C43.776 11.288 43.7294 11.134 43.636 11.022C43.5427 10.9007 43.37 10.798 43.118 10.714C42.866 10.6207 42.4927 10.532 41.998 10.448C41.2607 10.3173 40.682 10.154 40.262 9.958C39.842 9.762 39.5434 9.524 39.366 9.244C39.1887 8.964 39.1 8.614 39.1 8.194C39.1 7.494 39.3614 6.934 39.884 6.514C40.4067 6.094 41.1394 5.884 42.082 5.884C42.9874 5.884 43.706 6.11267 44.238 6.57C44.77 7.02733 45.092 7.61533 45.204 8.334L43.678 8.418C43.6034 8.01667 43.426 7.704 43.146 7.48C42.8754 7.24667 42.516 7.13 42.068 7.13C41.6014 7.13 41.2467 7.22333 41.004 7.41C40.7614 7.58733 40.64 7.83 40.64 8.138C40.64 8.46467 40.7614 8.70733 41.004 8.866C41.256 9.02467 41.69 9.15533 42.306 9.258C43.0714 9.37933 43.6734 9.538 44.112 9.734C44.5507 9.92067 44.8587 10.154 45.036 10.434C45.2227 10.7047 45.316 11.05 45.316 11.47C45.316 12.1513 45.0314 12.688 44.462 13.08C43.902 13.472 43.1694 13.668 42.264 13.668ZM48.7876 13.668C48.0036 13.668 47.3829 13.4907 46.9256 13.136C46.4683 12.772 46.2396 12.2727 46.2396 11.638C46.2396 11.0033 46.4309 10.504 46.8136 10.14C47.1963 9.776 47.7983 9.51467 48.6196 9.356L51.1816 8.866C51.1816 7.718 50.6496 7.144 49.5856 7.144C48.6616 7.144 48.1016 7.55933 47.9056 8.39L46.3656 8.292C46.5056 7.54533 46.8556 6.95733 47.4156 6.528C47.9849 6.09867 48.7083 5.884 49.5856 5.884C50.5843 5.884 51.3449 6.15467 51.8676 6.696C52.3996 7.228 52.6656 7.97933 52.6656 8.95V11.848C52.6656 12.0253 52.6983 12.1513 52.7636 12.226C52.8289 12.2913 52.9316 12.324 53.0716 12.324H53.3376V13.5C53.2443 13.528 53.0623 13.542 52.7916 13.542C52.3529 13.542 52.0123 13.4487 51.7696 13.262C51.5269 13.0753 51.3729 12.772 51.3076 12.352C51.1209 12.744 50.7989 13.0613 50.3416 13.304C49.8843 13.5467 49.3663 13.668 48.7876 13.668ZM49.0396 12.492C49.6929 12.492 50.2109 12.3053 50.5936 11.932C50.9856 11.5587 51.1816 11.0687 51.1816 10.462V9.986L49.0116 10.406C48.5729 10.49 48.2556 10.6207 48.0596 10.798C47.8729 10.9753 47.7796 11.2087 47.7796 11.498C47.7796 11.8153 47.8869 12.0627 48.1016 12.24C48.3256 12.408 48.6383 12.492 49.0396 12.492Z" fill="white"/>
</svg>
