<svg width="124" height="123" viewBox="0 0 124 123" fill="none" xmlns="http://www.w3.org/2000/svg">
<path d="M32.5523 57.6521C32.5523 48.9304 36.017 40.5658 42.1843 34.3986C48.3515 28.2314 56.716 24.7667 65.4378 24.7667C74.1595 24.7667 82.524 28.2314 88.6913 34.3986C94.8585 40.5658 98.3232 48.9304 98.3232 57.6521C98.3232 58.8981 98.8181 60.093 99.6992 60.9741C100.58 61.8551 101.775 62.35 103.021 62.35C104.267 62.35 105.462 61.8551 106.343 60.9741C107.224 60.093 107.719 58.8981 107.719 57.6521C107.718 50.4414 105.874 43.3507 102.36 37.0539C98.8467 30.7571 93.7813 25.4635 87.6453 21.6762C81.5093 17.8889 74.5067 15.7338 67.303 15.4157C60.0993 15.0976 52.934 16.6271 46.488 19.8588C40.0421 23.0905 34.5297 27.917 30.4749 33.8796C26.4201 39.8422 23.9576 46.7428 23.3214 53.9253C22.6852 61.1079 23.8965 68.3338 26.8401 74.9163C29.7838 81.4988 34.3619 87.2191 40.1395 91.5335C45.0938 95.2344 50.7996 97.8034 56.8547 99.0596C57.6958 100.946 59.1352 102.503 60.9501 103.489C62.7651 104.476 64.8545 104.836 66.8951 104.516C68.9357 104.195 70.8138 103.211 72.2387 101.715C73.6636 100.22 74.556 98.2962 74.7778 96.2426C74.9996 94.1889 74.5384 92.1193 73.4657 90.3541C72.3929 88.5888 70.7683 87.2263 68.8433 86.4773C66.9182 85.7283 64.8 85.6345 62.8163 86.2105C60.8326 86.7865 59.0939 88.0002 57.8694 89.6637C50.6609 87.959 44.239 83.8705 39.6441 78.0605C35.0492 72.2506 32.5503 65.0595 32.5523 57.6521ZM37.2503 57.6521C37.2521 52.4665 38.6844 47.3819 41.3895 42.9578C44.0947 38.5337 47.9678 34.9416 52.5827 32.5766C57.1977 30.2117 62.3755 29.1657 67.5466 29.5537C72.7177 29.9416 77.6815 31.7485 81.8919 34.7756C86.1023 37.8026 89.3961 41.9325 91.4108 46.7107C93.4255 51.4889 94.0831 56.7303 93.3112 61.8581C92.5393 66.9859 90.3678 71.8015 87.0356 75.7748C83.7035 79.7481 79.3398 82.7252 74.4249 84.3786C71.8973 82.2864 68.7189 81.1416 65.4378 81.1417C62.0224 81.1417 58.8936 82.3585 56.4506 84.3786C50.8542 82.496 45.9903 78.9035 42.5453 74.1082C39.1003 69.3128 37.2482 63.5567 37.2503 57.6521Z" fill="#5B78FD"/>
</svg>
